<?xml version="1.0" encoding="UTF-8" standalone="no"?>
<!-- Created with Inkscape (http://www.inkscape.org/) -->

<svg
   xmlns:dc="http://purl.org/dc/elements/1.1/"
   xmlns:cc="http://creativecommons.org/ns#"
   xmlns:rdf="http://www.w3.org/1999/02/22-rdf-syntax-ns#"
   xmlns:svg="http://www.w3.org/2000/svg"
   xmlns="http://www.w3.org/2000/svg"
   xmlns:sodipodi="http://sodipodi.sourceforge.net/DTD/sodipodi-0.dtd"
   xmlns:inkscape="http://www.inkscape.org/namespaces/inkscape"
   width="322.57581"
   height="434.12781"
   id="svg2"
   version="1.1"
   inkscape:version="0.48.4 r9939"
   sodipodi:docname="logo_icc.svg">
  <defs
     id="defs4" />
  <sodipodi:namedview
     id="base"
     pagecolor="#ffffff"
     bordercolor="#666666"
     borderopacity="1.0"
     inkscape:pageopacity="0.0"
     inkscape:pageshadow="2"
     inkscape:zoom="1.718388"
     inkscape:cx="161.2879"
     inkscape:cy="217.0639"
     inkscape:document-units="px"
     inkscape:current-layer="layer2"
     showgrid="false"
     inkscape:window-width="1280"
     inkscape:window-height="959"
     inkscape:window-x="0"
     inkscape:window-y="0"
     inkscape:window-maximized="1"
     fit-margin-top="5"
     fit-margin-left="5"
     fit-margin-right="5"
     fit-margin-bottom="5"
     inkscape:showpageshadow="false" />
  <metadata
     id="metadata7">
    <rdf:RDF>
      <cc:Work
         rdf:about="">
        <dc:format>image/svg+xml</dc:format>
        <dc:type
           rdf:resource="http://purl.org/dc/dcmitype/StillImage" />
        <dc:title />
      </cc:Work>
    </rdf:RDF>
  </metadata>
  <g
     inkscape:groupmode="layer"
     id="layer2"
     inkscape:label="Capa"
     style="display:inline"
     transform="translate(-187.75,-76.143987)">
    <path
       sodipodi:type="arc"
       style="fill:#ffd42a;fill-opacity:1;stroke:none"
       id="path3841"
       sodipodi:cx="-64.014595"
       sodipodi:cy="330.70166"
       sodipodi:rx="27.634716"
       sodipodi:ry="27.634716"
       d="m -36.379879,330.70166 c 0,15.26223 -12.372484,27.63472 -27.634716,27.63472 -15.262232,0 -27.634716,-12.37249 -27.634716,-27.63472 0,-15.26223 12.372484,-27.63472 27.634716,-27.63472 15.262232,0 27.634716,12.37249 27.634716,27.63472 z"
       transform="matrix(1.2665229,0,0,1.2665229,332.97269,-30.107067)"
       inkscape:export-filename="/media/Datos2C/bocetos/logo_icc.png"
       inkscape:export-xdpi="90"
       inkscape:export-ydpi="90" />
    <path
       style="fill:#0082d6;fill-opacity:1;stroke:none"
       d="m 226.63615,386.31708 c -0.47868,-0.37255 -0.54363,-2.4852 -0.54363,-2.4852 6.01229,0.91071 14.46236,-8.62809 13.59087,-17.78465 -1.70856,0 -1.55323,-2.17454 -1.55323,-2.17454 0,0 1.62516,-0.30202 2.56284,-0.31064 4.07275,1.77588 13.79569,2.12624 18.87195,0.23298 1.80573,0.31305 3.40291,2.51415 5.12571,2.8735 1.72277,0.35936 4.65972,-0.46596 4.65972,-0.46596 0,0 0.0709,-0.93976 0.0419,-1.33541 0.1853,-0.53884 -0.60232,-1.66239 -0.4921,-2.33017 0.0773,-0.46792 1.42537,-1.68071 1.58164,-1.75169 0.12747,0.002 2.39925,1.34989 2.55831,2.21498 0,0 -0.16201,1.42014 -0.6337,2.09808 -0.47172,0.67793 -1.25316,0.61368 -1.75197,0.35836 l -0.52733,1.05649 c 0,0 1.69027,1.77948 1.86389,2.95115 -1.3757,7.95899 3.98012,10.4093 4.7455,11.15131 0.7654,0.74199 -1.46048,10.34519 -0.16343,15.40918 0.0646,3.01575 1.67628,3.12772 0.93194,4.58209 -0.74434,1.45434 -3.43898,1.33191 -4.58207,2.56284 -1.14308,1.23093 -0.23518,3.95279 -1.70857,5.28103 -5.87104,1.23395 -11.49827,3.74789 -15.99842,8.2322 -26.13079,-5.98351 -30.47613,-20.1449 -28.57972,-30.36593 z"
       id="path3016"
       inkscape:connector-curvature="0"
       sodipodi:nodetypes="cccccczccsccsccczczzccc"
       inkscape:export-filename="/media/Datos2C/bocetos/logo_icc.png"
       inkscape:export-xdpi="90"
       inkscape:export-ydpi="90" />
    <path
       style="fill:#ffdf00;fill-opacity:1;stroke:#f36554;stroke-width:2.40499997;stroke-linecap:round;stroke-linejoin:round;stroke-miterlimit:4;stroke-opacity:1;stroke-dasharray:none"
       d="m 248.78482,408.09678 c -7.88716,-0.11647 -10.78066,-6.02557 -10.93078,-15.11701 -1.86074,-3.31683 -2.03784,-7.11471 -1.74427,-11.04705 0.8594,2.39157 2.31906,3.7327 4.41881,3.95367 3.56781,-15.53511 14.15144,-5.3415 9.76795,-26.51292 12.38814,5.49391 12.80579,17.69476 12.90761,24.18724 l 3.13969,-5.11653 c 1.15331,14.46257 6.0177,27.08545 -12.79134,27.90834 13.53914,-9.09464 3.22407,-15.68135 1.74433,-17.21015 -1.92284,10.07319 -6.18023,15.04015 -10.81449,3.8374 -1.24169,7.89325 0.91706,12.15939 4.30253,15.11701 z"
       id="path3018"
       inkscape:connector-curvature="0"
       sodipodi:nodetypes="cccccccccccc"
       inkscape:export-filename="/media/Datos2C/bocetos/logo_icc.png"
       inkscape:export-xdpi="90"
       inkscape:export-ydpi="90" />
    <text
       xml:space="preserve"
       style="font-size:72px;font-style:normal;font-variant:normal;font-weight:bold;font-stretch:normal;line-height:125%;letter-spacing:0px;word-spacing:0px;fill:#000000;fill-opacity:1;stroke:none;font-family:Liberation Sans;-inkscape-font-specification:Liberation Sans Bold"
       x="240.9149"
       y="504.56866"
       id="text3788"
       sodipodi:linespacing="125%"><tspan
         sodipodi:role="line"
         id="tspan3790"
         x="240.9149"
         y="504.56866">ICC S.L</tspan></text>
    <path
       sodipodi:type="arc"
       style="fill:#ffd42a;fill-opacity:1;stroke:none;display:inline"
       id="path3841-2"
       sodipodi:cx="-64.014595"
       sodipodi:cy="330.70166"
       sodipodi:rx="27.634716"
       sodipodi:ry="27.634716"
       d="m -36.379879,330.70166 c 0,15.26223 -12.372484,27.63472 -27.634716,27.63472 -15.262232,0 -27.634716,-12.37249 -27.634716,-27.63472 0,-15.26223 12.372484,-27.63472 27.634716,-27.63472 15.262232,0 27.634716,12.37249 27.634716,27.63472 z"
       transform="matrix(4.4558783,0,0,4.4558783,633.64591,-1256.7124)"
       inkscape:export-filename="/media/Datos2C/bocetos/logo_icc.png"
       inkscape:export-xdpi="90"
       inkscape:export-ydpi="90" />
    <path
       style="fill:#0082d6;fill-opacity:1;stroke:none;display:inline"
       d="m 259.53291,208.35012 c -1.6841,-1.3107 -1.91261,-8.74342 -1.91261,-8.74342 21.15244,3.20406 50.88145,-30.35533 47.81538,-62.56992 -6.01105,0 -5.46457,-7.65046 -5.46457,-7.65046 0,0 5.71764,-1.06257 9.01658,-1.0929 14.32874,6.2479 48.53596,7.48053 66.39525,0.81968 6.35292,1.10136 11.97212,8.84527 18.03327,10.10954 6.06105,1.26429 16.39381,-1.63934 16.39381,-1.63934 0,0 0.24944,-3.30627 0.14741,-4.69825 0.65193,-1.89574 -2.11907,-5.84861 -1.7313,-8.198 0.27195,-1.64623 5.01474,-5.91307 5.56453,-6.16279 0.44846,0.008 8.44103,4.74919 9.00063,7.79274 0,0 -0.56997,4.99634 -2.22948,7.38147 -1.6596,2.38509 -4.40887,2.15904 -6.16378,1.26077 l -1.85524,3.71694 c 0,0 5.9467,6.26058 6.55753,10.38273 -4.83999,28.00132 14.00284,36.62198 16.69561,39.23252 2.69282,2.61047 -5.13826,36.39643 -0.57498,54.21256 0.22727,10.61 5.89748,11.00393 3.27874,16.12069 -2.61873,5.11666 -12.099,4.68593 -16.12063,9.01658 -4.02158,4.33066 -0.8274,13.9067 -6.01107,18.57971 -20.65549,4.34127 -40.4532,13.18581 -56.28562,28.96251 C 268.14908,294.1323 252.86131,244.30973 259.53325,208.35012 z"
       id="path3016-4"
       inkscape:connector-curvature="0"
       sodipodi:nodetypes="cccccczccsccsccczczzccc"
       inkscape:export-filename="/media/Datos2C/bocetos/logo_icc.png"
       inkscape:export-xdpi="90"
       inkscape:export-ydpi="90" />
    <path
       style="fill:#ffdf00;fill-opacity:1;stroke:#f36554;stroke-width:8.46126556;stroke-linecap:round;stroke-linejoin:round;stroke-miterlimit:4;stroke-opacity:1;stroke-dasharray:none;display:inline"
       d="m 337.45631,284.97542 c -27.74859,-0.40977 -37.92849,-21.19915 -38.45665,-53.18464 -6.54645,-11.66925 -7.16952,-25.03095 -6.13668,-38.8657 3.02353,8.41401 8.15891,13.13238 15.54625,13.90979 12.55226,-54.65559 49.78756,-18.79246 34.36558,-93.27771 43.58393,19.32867 45.0533,62.25368 45.41152,85.0955 l 11.04606,-18.00096 c 4.05757,50.88219 21.17146,95.29198 -45.00248,98.18707 47.63338,-31.99674 11.34292,-55.1701 6.1369,-60.54872 -6.76492,35.43948 -21.74326,52.91423 -38.04751,13.50073 -4.36851,27.77002 3.2264,42.77914 15.13715,53.18464 z"
       id="path3018-2"
       inkscape:connector-curvature="0"
       sodipodi:nodetypes="cccccccccccc"
       inkscape:export-filename="/media/Datos2C/bocetos/logo_icc.png"
       inkscape:export-xdpi="90"
       inkscape:export-ydpi="90" />
  </g>
</svg>
